<?xml version="1.0" standalone="no"?>
<!DOCTYPE svg PUBLIC "-//W3C//DTD SVG 20010904//EN"
 "http://www.w3.org/TR/2001/REC-SVG-20010904/DTD/svg10.dtd">
<svg version="1.0" xmlns="http://www.w3.org/2000/svg"
 width="900.000000pt" height="280.000000pt" viewBox="0 0 900.000000 280.000000"
 preserveAspectRatio="xMidYMid meet">

<g transform="translate(0.000000,280.000000) scale(0.100000,-0.100000)"
fill="#EF433A" stroke="none">
<path d="M716 2785 c-70 -24 -112 -82 -141 -192 -8 -31 -18 -60 -22 -63 -5 -4
-28 -12 -53 -19 -154 -43 -304 -153 -360 -263 -57 -115 -37 -254 54 -382 78
-109 175 -185 446 -346 254 -151 341 -224 396 -332 23 -45 26 -61 21 -114 -15
-190 -207 -316 -435 -284 -83 11 -177 50 -229 94 -76 64 -108 209 -63 284 11
18 20 35 20 38 0 14 -77 34 -132 34 -73 0 -152 -32 -186 -74 -30 -39 -38 -123
-19 -202 32 -128 128 -234 282 -310 138 -68 193 -79 380 -79 148 1 166 3 238
28 212 74 367 248 412 462 40 191 -7 350 -148 501 -89 96 -181 163 -406 299
-228 138 -293 189 -316 249 -17 45 -17 46 9 100 23 47 66 92 113 119 7 5 20
-11 34 -39 12 -26 47 -72 78 -104 125 -127 288 -158 382 -73 53 48 69 81 69
143 0 146 -164 285 -350 297 -94 7 -93 2 -29 121 30 56 37 78 29 92 -14 26
-31 29 -74 15z m214 -423 c46 -23 74 -71 60 -106 -13 -34 -55 -51 -90 -36 -48
22 -101 63 -130 104 -17 22 -30 43 -30 47 0 23 135 17 190 -9z"/>
<path d="M3602 2567 c-44 -14 -106 -75 -136 -135 -56 -111 -58 -129 -66 -652
-5 -267 -13 -521 -19 -565 -5 -44 -12 -121 -14 -172 -3 -81 -7 -97 -32 -133
-53 -76 -191 -151 -307 -165 -72 -9 -153 13 -191 53 -51 53 -48 144 6 207 31
35 36 38 94 39 82 1 117 26 121 84 3 39 1 43 -30 56 -18 8 -65 24 -105 35 -53
16 -78 29 -97 52 -72 85 26 214 125 164 19 -10 53 -35 76 -56 56 -51 89 -52
145 -1 44 40 88 120 88 163 0 73 -92 136 -243 165 -75 15 -100 16 -165 6 -322
-49 -438 -339 -216 -541 31 -28 55 -53 53 -55 -2 -1 -25 -15 -51 -29 -46 -27
-118 -107 -118 -132 0 -7 -24 -35 -54 -63 -87 -83 -156 -80 -206 8 -23 41 -25
55 -25 170 0 69 4 175 9 235 7 90 6 122 -8 175 -37 147 -146 233 -296 233 -66
0 -118 -20 -178 -70 -35 -29 -46 -33 -53 -22 -5 8 -9 19 -9 26 0 24 -52 72
-84 78 -66 13 -164 -36 -197 -97 -11 -21 -13 -577 -2 -833 7 -184 14 -198 98
-210 61 -10 113 6 150 45 l30 31 7 352 7 352 65 62 c112 107 160 117 191 41
18 -46 17 -83 -11 -268 -18 -121 -18 -209 1 -288 44 -187 173 -302 339 -302
77 0 133 18 199 66 l49 36 42 -40 c82 -79 192 -114 361 -114 179 0 318 45 420
134 35 31 50 39 53 29 9 -27 83 -99 118 -116 19 -9 62 -21 95 -28 115 -21 259
32 376 138 l58 52 55 -38 c102 -71 235 -87 368 -45 16 5 22 3 22 -7 0 -8 -34
-31 -76 -52 -86 -42 -198 -144 -232 -210 -33 -66 -46 -153 -32 -219 42 -204
291 -255 464 -96 94 87 144 199 153 347 l6 92 31 6 c17 4 72 26 121 50 122 59
180 117 312 315 45 67 129 246 180 386 21 57 41 104 45 104 18 0 95 -90 101
-117 7 -36 -4 -116 -35 -241 -12 -53 -21 -121 -21 -173 0 -75 4 -95 27 -143
44 -91 115 -129 241 -129 111 0 177 27 261 106 l65 61 39 -46 c106 -123 300
-180 457 -133 190 56 343 311 343 569 0 235 -157 435 -357 453 l-58 5 3 38 c6
57 -25 74 -123 68 -296 -19 -485 -386 -390 -759 5 -22 -2 -35 -45 -82 -32 -35
-67 -62 -95 -73 -42 -16 -46 -16 -71 1 -26 17 -27 19 -21 99 4 44 21 133 38
196 36 134 49 282 29 330 -21 51 -99 112 -199 154 -50 21 -94 42 -97 48 -3 5
-7 31 -9 58 -3 58 -33 111 -81 141 -46 28 -123 23 -159 -11 -39 -36 -59 -101
-50 -157 21 -121 12 -189 -44 -353 -82 -244 -191 -447 -272 -512 -34 -27 -149
-81 -157 -73 -2 2 4 171 12 377 24 551 24 558 3 589 -23 35 -58 49 -117 49
-60 0 -96 -13 -132 -47 l-27 -26 -53 24 c-73 32 -179 32 -263 -1 -80 -31 -180
-129 -223 -220 -58 -124 -78 -317 -48 -460 l14 -65 -27 -35 c-79 -100 -227
-105 -276 -10 -35 67 -37 129 -15 372 l22 231 44 53 c150 185 220 536 159 802
-18 78 -44 128 -87 169 -54 52 -111 64 -186 40z m139 -269 c19 -80 6 -291 -25
-412 -14 -55 -30 -104 -36 -110 -7 -7 -10 77 -10 257 0 215 3 275 15 304 12
29 18 33 29 24 8 -7 20 -35 27 -63z m2674 -758 c-24 -46 -12 -67 50 -84 129
-38 225 -241 212 -453 -9 -151 -68 -232 -159 -220 -215 29 -323 573 -148 750
46 46 67 49 45 7z m-1915 -75 c20 -18 20 -27 18 -304 l-3 -286 -62 -3 c-151
-7 -224 93 -224 308 0 150 34 247 103 291 42 26 136 23 168 -6z m10 -1062 c0
-113 -36 -179 -101 -189 -108 -18 -82 136 37 214 26 18 51 32 56 32 4 0 8 -26
8 -57z"/>
<path d="M7771 1695 c-72 -66 -112 -211 -91 -335 10 -62 9 -70 -20 -154 -33
-93 -111 -269 -116 -263 -2 2 -11 41 -19 88 -77 411 -229 666 -410 687 -27 3
-53 -2 -72 -11 -89 -47 -183 -235 -139 -279 8 -9 39 -19 68 -23 98 -13 162
-63 217 -167 16 -31 68 -177 116 -323 99 -305 116 -335 188 -335 37 0 47 6 97
58 157 162 380 785 355 989 -8 69 -39 103 -94 103 -33 0 -49 -7 -80 -35z"/>
<path d="M8284 1706 c-173 -40 -282 -146 -291 -284 -8 -109 42 -208 140 -278
l29 -20 -56 -37 c-100 -66 -143 -150 -133 -260 17 -184 238 -296 525 -267 164
17 292 78 392 186 112 122 143 260 65 296 -37 16 -70 -3 -103 -58 -69 -120
-176 -199 -308 -230 -111 -26 -220 2 -257 65 -21 35 -22 112 -3 149 29 55 60
74 123 76 91 2 136 43 119 110 -6 25 -31 38 -106 56 -107 26 -150 62 -150 125
0 42 28 85 67 101 47 20 89 6 154 -52 69 -61 97 -60 160 5 33 34 53 66 65 103
16 52 16 57 -1 92 -44 93 -273 158 -431 122z"/>
</g>
</svg>
